<svg xmlns="http://www.w3.org/2000/svg" xmlns:xlink="http://www.w3.org/1999/xlink" width="22px" height="21px" viewBox="0 0 22 21">
                                <defs>
                                    <linearGradient id="PSgrad_0" x1="0%" x2="0%" y1="100%" y2="0%">
                                      <stop offset="0%" stop-color="rgb(255,153,69)" stop-opacity="1"/>
                                      <stop offset="100%" stop-color="rgb(255,184,69)" stop-opacity="1"/>
                                    </linearGradient>
                                </defs>
                                <path fill-rule="evenodd" opacity="0.2" fill="rgb(70, 97, 138)" d="M20.926,8.822 L16.555,13.107 C16.369,13.291 16.282,13.555 16.327,13.812 L17.359,19.863 C17.395,20.059 17.317,20.249 17.156,20.366 C16.995,20.484 16.794,20.498 16.616,20.406 L11.213,17.550 C11.146,17.514 11.072,17.511 11.000,17.496 L11.000,0.870 C11.126,0.913 11.239,0.987 11.302,1.114 L14.004,6.620 C14.118,6.854 14.340,7.017 14.599,7.056 L20.642,7.940 C20.840,7.970 20.995,8.102 21.057,8.293 C21.118,8.482 21.068,8.681 20.926,8.822 Z"/>
                                <path fill-rule="evenodd" fill="rgb(70, 97, 138)" d="M13.781,18.907 L11.213,17.550 C10.982,17.426 10.707,17.426 10.476,17.550 L5.070,20.406 C4.895,20.498 4.692,20.484 4.530,20.366 C4.369,20.249 4.294,20.062 4.327,19.863 L5.359,13.812 C5.404,13.552 5.318,13.289 5.131,13.107 L0.760,8.822 C0.616,8.681 0.568,8.482 0.629,8.293 C0.691,8.099 0.846,7.967 1.044,7.940 L7.087,7.056 C7.346,7.017 7.568,6.854 7.682,6.620 L10.384,1.114 C10.470,0.932 10.646,0.826 10.843,0.826 C11.041,0.826 11.213,0.935 11.302,1.114 L13.781,6.166 L13.781,18.907 Z"/>
                                <path fill="url(#PSgrad_0)" d="M13.781,18.907 L11.213,17.550 C10.982,17.426 10.707,17.426 10.476,17.550 L5.070,20.406 C4.895,20.498 4.692,20.484 4.530,20.366 C4.369,20.249 4.294,20.062 4.327,19.863 L5.359,13.812 C5.404,13.552 5.318,13.289 5.131,13.107 L0.760,8.822 C0.616,8.681 0.568,8.482 0.629,8.293 C0.691,8.099 0.846,7.967 1.044,7.940 L7.087,7.056 C7.346,7.017 7.568,6.854 7.682,6.620 L10.384,1.114 C10.470,0.932 10.646,0.826 10.843,0.826 C11.041,0.826 11.213,0.935 11.302,1.114 L13.781,6.166 L13.781,18.907 Z"/>
                            </svg>